<svg width="25" height="24" viewBox="0 0 25 24" fill="none" xmlns="http://www.w3.org/2000/svg">
<path d="M16.126 12C16.126 14.2031 14.3291 16 12.126 16C9.92285 16 8.12598 14.2031 8.12598 12C8.12598 9.79688 9.92285 8 12.126 8C14.3291 8 16.126 9.79688 16.126 12ZM18.2822 12C18.2822 8.59375 15.5322 5.84375 12.126 5.84375C8.71973 5.84375 5.96973 8.59375 5.96973 12C5.96973 15.4063 8.71973 18.1563 12.126 18.1563C15.5322 18.1563 18.2822 15.4063 18.2822 12ZM19.9697 5.59375C19.9697 4.79688 19.3291 4.15625 18.5322 4.15625C17.7354 4.15625 17.0947 4.79688 17.0947 5.59375C17.0947 6.39062 17.7354 7.03125 18.5322 7.03125C19.3291 7.03125 19.9697 6.39062 19.9697 5.59375ZM12.126 2.15625C13.876 2.15625 17.626 2.01562 19.2041 2.64062C19.751 2.85937 20.1572 3.125 20.5791 3.54688C21.001 3.96875 21.2666 4.375 21.4854 4.92188C22.1104 6.5 21.9697 10.25 21.9697 12C21.9697 13.75 22.1104 17.5 21.4854 19.0781C21.2666 19.625 21.001 20.0313 20.5791 20.4531C20.1572 20.875 19.751 21.1406 19.2041 21.3594C17.626 21.9844 13.876 21.8438 12.126 21.8438C10.376 21.8438 6.62598 21.9844 5.04785 21.3594C4.50098 21.1406 4.09473 20.875 3.67285 20.4531C3.25098 20.0313 2.98535 19.625 2.7666 19.0781C2.1416 17.5 2.28223 13.75 2.28223 12C2.28223 10.25 2.1416 6.5 2.7666 4.92188C2.98535 4.375 3.25098 3.96875 3.67285 3.54688C4.09473 3.125 4.50098 2.85937 5.04785 2.64062C6.62598 2.01562 10.376 2.15625 12.126 2.15625ZM24.126 12C24.126 10.3438 24.1416 8.70312 24.0479 7.04688C23.9541 5.125 23.5166 3.42188 22.1104 2.01563C20.7041 0.609375 19.001 0.171875 17.0791 0.0781261C15.4229 -0.0156244 13.7822 -1.19209e-07 12.126 -1.19209e-07C10.4697 -1.19209e-07 8.8291 -0.0156244 7.17285 0.0781261C5.25098 0.171875 3.54785 0.609375 2.1416 2.01563C0.735352 3.42188 0.297852 5.125 0.204102 7.04688C0.110352 8.70312 0.125977 10.3438 0.125977 12C0.125977 13.6562 0.110352 15.2969 0.204102 16.9531C0.297852 18.875 0.735352 20.5781 2.1416 21.9844C3.54785 23.3906 5.25098 23.8281 7.17285 23.9219C8.8291 24.0156 10.4697 24 12.126 24C13.7822 24 15.4229 24.0156 17.0791 23.9219C19.001 23.8281 20.7041 23.3906 22.1104 21.9844C23.5166 20.5781 23.9541 18.875 24.0479 16.9531C24.1416 15.2969 24.126 13.6562 24.126 12Z" fill="#0A0A0A"/>
</svg>
