<svg width="24" height="20" viewBox="0 0 24 20" fill="none" xmlns="http://www.w3.org/2000/svg">
<path d="M11.7753 8.85201L21.1273 3.00001H2.42326L11.7753 8.85201ZM21.1273 17V5.35201L11.7753 11.148L2.42326 5.35201V17H21.1273ZM21.1273 0.64801C21.7619 0.64801 22.3033 0.881343 22.7513 1.34801C23.1993 1.81468 23.4233 2.36534 23.4233 3.00001V17C23.4233 17.6347 23.1993 18.1853 22.7513 18.652C22.3033 19.1187 21.7619 19.352 21.1273 19.352H2.42326C1.78859 19.352 1.24726 19.1187 0.799258 18.652C0.351258 18.1853 0.127258 17.6347 0.127258 17V3.00001C0.127258 2.36534 0.351258 1.81468 0.799258 1.34801C1.24726 0.881343 1.78859 0.64801 2.42326 0.64801H21.1273Z" fill="#0A0A0A"/>
</svg>
