<svg width="26" height="20" viewBox="0 0 26 20" fill="none" xmlns="http://www.w3.org/2000/svg">
<path d="M25.125 2.375C24.2188 2.76562 23.2344 3.04688 22.2188 3.15625C23.2656 2.53125 24.0625 1.54687 24.4375 0.375C23.4688 0.953125 22.375 1.375 21.2344 1.59375C20.3125 0.609375 19 0 17.5469 0C14.75 0 12.5 2.26562 12.5 5.04687C12.5 5.4375 12.5469 5.82812 12.625 6.20313C8.4375 5.98437 4.70312 3.98438 2.21875 0.921875C1.78125 1.67187 1.53125 2.53125 1.53125 3.46875C1.53125 5.21875 2.42188 6.76562 3.78125 7.67187C2.95312 7.64062 2.17188 7.40625 1.5 7.03125C1.5 7.04688 1.5 7.07812 1.5 7.09375C1.5 9.54688 3.23437 11.5781 5.54688 12.0469C5.125 12.1562 4.67188 12.2188 4.21875 12.2188C3.89063 12.2188 3.57813 12.1875 3.26563 12.1406C3.90625 14.1406 5.76562 15.5938 7.98438 15.6406C6.25 17 4.07812 17.7969 1.71875 17.7969C1.29688 17.7969 0.90625 17.7812 0.5 17.7344C2.73438 19.1719 5.39062 20 8.25 20C17.5312 20 22.6094 12.3125 22.6094 5.64062C22.6094 5.42187 22.6094 5.20312 22.5938 4.98437C23.5781 4.26562 24.4375 3.375 25.125 2.375Z" fill="#0A0A0A"/>
</svg>
