<svg width="29" height="20" viewBox="0 0 29 20" fill="none" xmlns="http://www.w3.org/2000/svg">
<path d="M11.2365 13.625V5.76562L18.799 9.71875L11.2365 13.625ZM14.1271 0.15625C8.23647 0.15625 4.33022 0.4375 4.33022 0.4375C3.78334 0.499999 2.58022 0.499999 1.51772 1.625C1.51772 1.625 0.658345 2.46875 0.408345 4.40625C0.11147 6.67187 0.127095 8.9375 0.127095 8.9375V11.0625C0.127095 11.0625 0.11147 13.3281 0.408345 15.5938C0.658345 17.5156 1.51772 18.375 1.51772 18.375C2.58022 19.4844 3.98647 19.4531 4.61147 19.5625C4.61147 19.5625 6.84585 19.7812 14.1271 19.8438C20.0177 19.8438 23.924 19.5469 23.924 19.5469C24.4708 19.4844 25.674 19.4844 26.7365 18.375C26.7365 18.375 27.5958 17.5156 27.8458 15.5938C28.1427 13.3281 28.1271 11.0625 28.1271 11.0625V8.9375C28.1271 8.9375 28.1427 6.67187 27.8458 4.40625C27.5958 2.46875 26.7365 1.625 26.7365 1.625C25.674 0.499999 24.4708 0.499999 23.924 0.4375C23.924 0.4375 20.0177 0.15625 14.1271 0.15625Z" fill="#0A0A0A"/>
</svg>
