<svg width="50" height="53" viewBox="0 0 50 53" fill="none" xmlns="http://www.w3.org/2000/svg">
<path fill-rule="evenodd" clip-rule="evenodd" d="M24.936 21.7188C24.8624 21.8231 24.8105 21.886 24.7701 21.9555C23.2125 24.6261 21.656 27.2973 20.0992 29.9685C19.6423 30.7523 19.1798 31.533 18.7319 32.322C18.6322 32.4974 18.5201 32.5652 18.314 32.5645C16.002 32.5574 13.69 32.5599 11.3781 32.5599H6.2459H5.91666C5.99108 32.4219 6.03787 32.329 6.09006 32.2394C6.84752 30.94 7.60593 29.6413 8.3637 28.3422C9.60803 26.2087 10.8545 24.0765 12.0922 21.9392C12.1985 21.7556 12.3148 21.6875 12.5292 21.6878C16.5349 21.6942 20.5407 21.6926 24.5465 21.6919C24.6534 21.6919 24.7602 21.6833 24.8966 21.6773C24.8602 21.5944 24.8429 21.5416 24.8155 21.4944C23.2425 18.794 21.6685 16.0939 20.0948 13.3938C19.6295 12.5954 19.1687 11.7943 18.6959 11.0004C18.6104 10.8569 18.615 10.7548 18.698 10.6132C19.9302 8.51145 21.1565 6.40623 22.3835 4.30132C23.1535 2.98033 23.9221 1.6586 24.6915 0.337195C24.7585 0.222212 24.8268 0.107858 24.8866 0.00660647C24.9194 0.0020994 24.928 -0.000835434 24.9361 0.000212721C24.9438 0.00126088 24.9533 0.00461498 24.9579 0.010275C24.9839 0.0428727 25.0126 0.0743173 25.0335 0.110059C27.1109 3.67285 29.188 7.23584 31.2701 10.808C29.1652 14.4189 27.0639 18.0233 24.9384 21.6695C25.0997 21.679 25.2138 21.6916 25.3281 21.6917C29.2829 21.6926 33.2378 21.6914 37.1928 21.6939C37.6843 21.6942 37.5722 21.6178 37.8336 22.0655C39.3963 24.7428 40.9588 27.4203 42.5207 30.0981C42.9609 30.8529 43.3989 31.6087 43.8373 32.3644C43.862 32.4069 43.881 32.4526 43.9131 32.5184C43.8447 32.5347 43.7925 32.5524 43.739 32.5582C43.6804 32.5645 43.6206 32.5599 43.5613 32.5599H31.5949C31.561 32.5599 31.5265 32.5559 31.4934 32.5606C31.3265 32.5848 31.2304 32.5069 31.1507 32.3659C30.861 31.8541 30.5619 31.3477 30.2658 30.8396C28.5569 27.9072 26.8479 24.9746 25.1384 22.0424C25.084 21.9492 25.024 21.8593 24.936 21.7188Z" fill="#DA291C"/>
<path fill-rule="evenodd" clip-rule="evenodd" d="M12.4498 52.9017V48.3692C12.2403 48.589 12.1525 48.812 12.025 49.0076C11.8874 49.2186 11.7614 49.4371 11.6307 49.6526C11.5044 49.8608 11.3788 50.0696 11.2523 50.2779C11.1216 50.4932 10.9901 50.7082 10.8591 50.9235C10.7335 51.13 10.6081 51.3366 10.4563 51.5863C10.1104 51.0206 9.78832 50.4936 9.46586 49.9668C9.1489 49.4491 8.84073 48.9255 8.51329 48.4145C8.4918 48.4213 8.47031 48.428 8.44882 48.4349V52.8835H7.01469C6.95678 52.6955 6.94439 46.6223 7.0024 46.3414C7.06254 46.335 7.12785 46.3223 7.19317 46.322C7.69253 46.3203 8.1921 46.3255 8.69157 46.3182C8.83745 46.3163 8.91865 46.367 8.99159 46.4935C9.43251 47.257 9.88296 48.0151 10.3306 48.7748C10.3598 48.8244 10.392 48.8723 10.4273 48.9282C10.5535 48.8971 10.5713 48.7834 10.6174 48.7037C11.039 47.9776 11.4586 47.2501 11.8701 46.5183C11.9495 46.3773 12.0378 46.3135 12.2072 46.3171C12.7148 46.328 13.223 46.3207 13.7309 46.3216C13.789 46.3217 13.8472 46.3288 13.9016 46.3324C13.9584 46.5137 13.9789 52.4861 13.9218 52.8991C13.45 52.9064 12.9722 52.9012 12.4498 52.9017Z" fill="white"/>
<path fill-rule="evenodd" clip-rule="evenodd" d="M6.96717 44.0493H5.48931V41.8269V39.6224C5.46888 39.6158 5.44845 39.6093 5.42801 39.6027C4.7887 40.6366 4.1694 41.683 3.50171 42.7636C2.84642 41.6894 2.2161 40.6565 1.58579 39.6233C1.56504 39.6279 1.54419 39.6324 1.52344 39.6369C1.48321 39.8365 1.51137 40.0423 1.50629 40.2444C1.50089 40.4538 1.50502 40.6635 1.50502 40.8731V41.5019V42.1307V42.7595V43.3883V44.0455C1.00248 44.0862 0.518788 44.0623 0.0173103 44.0625C0.0102174 43.963 0.000477954 43.8902 0.000477954 43.8174C-0.00015723 41.822 5.4498e-05 39.8267 0.000160362 37.8313C0.000160362 37.8061 -0.000263094 37.781 0.000266226 37.7558C0.00630047 37.514 0.0138168 37.5046 0.264608 37.5037C0.747348 37.502 1.23019 37.5098 1.71261 37.4994C1.87946 37.4959 1.9741 37.5543 2.0554 37.695C2.48828 38.444 2.92941 39.1885 3.36822 39.9342C3.40136 39.9905 3.43915 40.044 3.47779 40.1036C3.60356 40.0653 3.62378 39.954 3.67046 39.8734C4.0792 39.1687 4.48921 38.4646 4.8826 37.7514C4.98582 37.5643 5.10344 37.4911 5.31855 37.4984C5.77535 37.514 6.2329 37.5032 6.69023 37.5032H6.93499C7.00158 37.6953 7.02815 43.5342 6.96717 44.0493Z" fill="white"/>
<path fill-rule="evenodd" clip-rule="evenodd" d="M29.4947 38.7519C29.4947 39.2058 29.4941 39.6145 29.495 40.0231C29.4952 40.1118 29.5385 40.1685 29.6326 40.1669C30.0465 40.1602 30.4631 40.1773 30.8734 40.135C31.2715 40.094 31.4626 39.8765 31.4844 39.4844C31.5131 38.9672 31.2898 38.7984 30.9017 38.7662C30.6327 38.7438 30.3608 38.7546 30.0903 38.7523C29.9057 38.7507 29.7212 38.7519 29.4947 38.7519ZM29.4939 42.8173C30.0692 42.8079 30.6065 42.8551 31.1422 42.7844C31.2967 42.764 31.4421 42.676 31.5007 42.5321C31.5656 42.3737 31.5998 42.1978 31.6155 42.0266C31.6258 41.9147 31.5965 41.7912 31.5554 41.6841C31.4535 41.4192 31.215 41.3435 30.9626 41.3354C30.5328 41.3215 30.1021 41.3322 29.6718 41.3308C29.5607 41.3306 29.4941 41.3725 29.4939 41.4904V42.8173ZM28.0341 37.5032H28.2921C29.1724 37.5032 30.0529 37.4946 30.9332 37.508C31.2267 37.5126 31.5269 37.5442 31.8114 37.6142C32.5669 37.8003 32.9259 38.2299 32.9869 38.997C33.0027 39.1947 32.9824 39.3988 32.9522 39.5961C32.8894 40.0054 32.6528 40.2978 32.2882 40.4935C32.21 40.5355 32.1342 40.5817 32.0247 40.6447C32.1218 40.689 32.1797 40.7188 32.2399 40.7423C32.7267 40.934 33.0265 41.2803 33.1223 41.7924C33.1943 42.1777 33.184 42.5618 33.0595 42.9347C32.8592 43.5348 32.4073 43.8579 31.8059 43.9845C31.5516 44.0381 31.2866 44.0605 31.0262 44.0631C30.1289 44.0724 29.2316 44.0667 28.3343 44.0667H28.0426C27.9801 43.8544 27.9714 37.7957 28.0341 37.5032Z" fill="white"/>
<path fill-rule="evenodd" clip-rule="evenodd" d="M34.4653 49.2381C34.9461 49.2381 35.4011 49.2621 35.8522 49.2301C36.184 49.2065 36.3816 48.9438 36.4169 48.5887C36.4627 48.1274 36.3156 47.8036 36.0016 47.6774C35.9705 47.6649 35.9374 47.6553 35.9045 47.6499C35.7965 47.6324 35.6885 47.6059 35.5801 47.6037C35.268 47.5975 34.9558 47.6001 34.6438 47.6026C34.588 47.6032 34.5324 47.62 34.4653 47.6314V49.2381ZM34.4511 52.9024C33.9898 52.9024 33.5755 52.903 33.1613 52.9018C33.1033 52.9017 33.0454 52.8936 32.9908 52.8895C32.9384 52.7029 32.9241 46.6544 32.9747 46.345C33.0103 46.338 33.0502 46.3229 33.0901 46.323C34.0553 46.3273 35.0206 46.3257 35.9854 46.3431C36.2976 46.3487 36.6045 46.4176 36.8994 46.5342C37.3719 46.7208 37.6821 47.0563 37.8383 47.527C38.0005 48.0151 38.0164 48.5201 37.9095 49.0178C37.7854 49.5947 37.446 50.0152 36.8777 50.2342C36.8082 50.2609 36.7394 50.2899 36.635 50.3322C36.8903 50.7691 37.1652 51.1774 37.4267 51.5934C37.6898 52.0117 37.9524 52.4304 38.2308 52.8738C38.1522 52.886 38.0988 52.9012 38.0453 52.9015C37.5966 52.9034 37.1477 52.8974 36.699 52.9053C36.5528 52.908 36.4701 52.8575 36.3967 52.7318C36.0198 52.0861 35.6263 51.4499 35.2538 50.8017C35.1444 50.6114 35.0225 50.5059 34.7939 50.5406C34.6967 50.5553 34.5954 50.543 34.4602 50.543C34.4571 50.8288 34.453 51.0851 34.4514 51.3413C34.45 51.5929 34.4511 51.8444 34.4511 52.096V52.9024Z" fill="white"/>
<path fill-rule="evenodd" clip-rule="evenodd" d="M27.7451 49.6406C27.7844 49.9852 27.8062 50.3626 27.8748 50.7313C27.9597 51.1884 28.2255 51.5071 28.7068 51.6063C28.9751 51.6615 29.2432 51.6561 29.5121 51.5906C29.7647 51.5292 29.9684 51.3964 30.0966 51.1797C30.1889 51.0234 30.2622 50.8465 30.2982 50.6697C30.3498 50.4164 30.3711 50.1555 30.3841 49.8969C30.4068 49.4442 30.3953 48.9916 30.3002 48.5456C30.1777 47.97 29.8687 47.6695 29.2885 47.6142C28.4994 47.5389 27.9831 47.816 27.8531 48.6082C27.799 48.9375 27.7824 49.2728 27.7451 49.6406ZM29.0705 46.2129C29.405 46.2576 29.7456 46.2758 30.0725 46.3521C30.9435 46.5553 31.4733 47.1229 31.7242 47.9576C31.9547 48.7241 31.9715 49.5082 31.9057 50.2984C31.8715 50.7098 31.7946 51.1108 31.6445 51.4974C31.3704 52.203 30.8723 52.6648 30.1313 52.861C29.4387 53.0443 28.7448 53.0463 28.0509 52.8667C27.2251 52.6531 26.7098 52.1191 26.4507 51.3306C26.2497 50.7182 26.2031 50.0825 26.2187 49.4446C26.2306 48.9597 26.2792 48.4767 26.4175 48.0057C26.7579 46.8459 27.578 46.3303 28.7124 46.2522C28.8301 46.2441 28.9489 46.2511 29.0673 46.2511C29.0683 46.2384 29.0695 46.2257 29.0705 46.2129Z" fill="white"/>
<path fill-rule="evenodd" clip-rule="evenodd" d="M16.4978 49.4889C16.5165 50.0408 16.5063 50.4535 16.6405 50.8499C16.8198 51.3794 17.1503 51.6219 17.7163 51.6407C17.7839 51.643 17.8519 51.6432 17.9195 51.6405C18.5228 51.6175 18.9062 51.3106 19.0237 50.7228C19.1698 49.992 19.1714 49.2555 19.0259 48.5244C18.9174 47.9793 18.6266 47.6967 18.0758 47.6242C17.2056 47.5094 16.6965 47.8505 16.5753 48.6543C16.5267 48.9764 16.5142 49.3039 16.4978 49.4889ZM20.6667 49.67C20.6717 50.1757 20.6268 50.7328 20.4587 51.2754C20.1773 52.1829 19.5779 52.7333 18.6279 52.9157C18.0275 53.0311 17.4342 53.0232 16.843 52.8838C15.9733 52.6787 15.4356 52.1237 15.1745 51.2918C15.028 50.8247 14.9709 50.3432 14.961 49.8554C14.9498 49.3013 14.9704 48.7497 15.1004 48.2076C15.2448 47.6053 15.5037 47.0709 16.0309 46.6999C16.3551 46.4717 16.7209 46.3471 17.1111 46.293C17.7193 46.2087 18.324 46.2114 18.9203 46.3824C19.6501 46.5915 20.1268 47.0661 20.3922 47.759C20.6208 48.3559 20.6701 48.9805 20.6667 49.67Z" fill="white"/>
<path fill-rule="evenodd" clip-rule="evenodd" d="M43.4462 37.5191V40.0421C43.6622 40.1042 45.5026 40.1155 45.8022 40.0604V37.5055C46.3016 37.5013 46.7702 37.5034 47.214 37.5045C47.2453 37.5336 47.252 37.5387 47.2575 37.5451C47.2628 37.5513 47.2692 37.558 47.2708 37.5653C47.2778 37.5979 47.2884 37.6307 47.2885 37.6634C47.2892 39.7499 47.2892 41.8364 47.2885 43.9229C47.2885 43.9552 47.2793 43.9877 47.2704 44.0466C46.7933 44.0847 46.3174 44.0666 45.8046 44.0567V41.4761H43.4584C43.4451 41.909 43.4538 42.3332 43.4523 42.7571C43.4507 43.1822 43.4519 43.6075 43.4519 44.0482H41.995C41.9414 43.7734 41.9512 37.719 42.0063 37.5191H43.4462Z" fill="white"/>
<path fill-rule="evenodd" clip-rule="evenodd" d="M21.4742 37.5187H22.919C22.9248 37.63 22.9341 37.7274 22.9342 37.8249C22.9351 39.1077 22.9345 40.3907 22.9355 41.6736C22.9355 41.7908 22.9352 41.9092 22.9514 42.0248C23.0031 42.3946 23.2129 42.6344 23.5774 42.7347C23.9286 42.8315 24.2822 42.8288 24.6303 42.7254C24.9708 42.6243 25.1678 42.3867 25.225 42.0421C25.2456 41.919 25.2447 41.7916 25.2448 41.6659C25.2461 40.3915 25.2456 39.1169 25.2456 37.8425V37.5236C25.7453 37.4844 26.215 37.5091 26.7102 37.5068C26.7195 37.5891 26.7344 37.6601 26.7346 37.731C26.7359 39.1564 26.7548 40.5823 26.7292 42.0072C26.7102 43.0531 26.1626 43.7944 25.0813 44.0508C24.3627 44.2211 23.637 44.2162 22.9229 44.0034C21.97 43.7195 21.4736 42.9912 21.4578 42.0801C21.4323 40.6216 21.4507 39.1622 21.4517 37.7032C21.4518 37.6469 21.4651 37.5905 21.4742 37.5187Z" fill="white"/>
<path fill-rule="evenodd" clip-rule="evenodd" d="M43.0849 47.7235C42.7331 47.693 42.3982 47.6515 42.0622 47.6382C41.6321 47.6209 41.2012 47.6244 40.7707 47.6244C40.6873 47.6244 40.6024 47.6437 40.5206 47.6643C40.2382 47.7346 40.1169 48.0158 40.2885 48.2487C40.3797 48.3725 40.5123 48.4821 40.6499 48.554C40.9783 48.7254 41.3233 48.865 41.6565 49.0278C41.9517 49.1722 42.2483 49.3168 42.5293 49.4858C43.2383 49.9123 43.4804 50.5603 43.4018 51.3537C43.3288 52.0924 42.9394 52.5766 42.2245 52.7985C41.8522 52.9142 41.4724 52.9825 41.0788 52.9922C40.3822 53.0094 39.6934 52.9471 39.0076 52.8355C38.9668 52.8289 38.9262 52.8198 38.8601 52.8069C38.8361 52.3576 38.8479 51.9121 38.8509 51.4569C39.2848 51.5046 39.6862 51.5546 40.0888 51.5916C40.5354 51.6327 40.9831 51.6641 41.4287 51.58C41.4951 51.5674 41.5632 51.5578 41.6264 51.5356C41.9891 51.4076 42.0898 50.9926 41.8096 50.7278C41.69 50.6147 41.5373 50.5289 41.3869 50.4561C41.0147 50.2764 40.6298 50.1223 40.2605 49.9371C39.9748 49.794 39.6913 49.6387 39.4314 49.4549C38.9759 49.1323 38.7383 48.6839 38.7578 48.1205C38.7649 47.9124 38.7727 47.7006 38.8149 47.4977C38.9342 46.9245 39.3138 46.5728 39.8631 46.4134C40.1607 46.327 40.475 46.2759 40.7847 46.2569C41.4777 46.2143 42.1706 46.2536 42.8614 46.3253C43.0903 46.3491 43.1055 46.3618 43.1076 46.5823C43.1104 46.8924 43.1094 47.2024 43.1072 47.5124C43.1068 47.577 43.094 47.6414 43.0849 47.7235Z" fill="white"/>
<path fill-rule="evenodd" clip-rule="evenodd" d="M36.6333 43.9816V42.6348C36.7841 42.6519 36.9155 42.6634 37.0457 42.6821C37.675 42.7718 38.3064 42.8284 38.9424 42.7868C39.1011 42.7764 39.2644 42.7519 39.4136 42.6998C39.7483 42.5833 39.849 42.2136 39.6132 41.948C39.5108 41.8324 39.3698 41.7389 39.2289 41.6699C38.7517 41.4363 38.2622 41.2272 37.7868 40.9902C37.5541 40.8743 37.3307 40.7325 37.1232 40.5762C36.7209 40.273 36.5233 39.8533 36.5212 39.3572C36.5201 39.1 36.5362 38.8343 36.6011 38.5869C36.7495 38.0215 37.1662 37.7118 37.7142 37.5613C38.2329 37.419 38.7659 37.3921 39.2998 37.4137C39.7388 37.4315 40.1773 37.4684 40.6152 37.5051C40.8554 37.5252 40.8636 37.5412 40.8646 37.7844C40.866 38.1431 40.865 38.5018 40.865 38.8836C40.7538 38.8836 40.6649 38.8877 40.5765 38.8829C39.9942 38.8515 39.4124 38.8127 38.8299 38.7883C38.6625 38.7812 38.4902 38.7991 38.3255 38.8318C37.9781 38.9008 37.8616 39.2496 38.1106 39.4973C38.2388 39.6248 38.4021 39.7268 38.5658 39.8083C38.9356 39.9922 39.3228 40.1422 39.6889 40.3326C39.9942 40.4913 40.2934 40.669 40.5699 40.8722C40.9015 41.1159 41.0906 41.4625 41.1538 41.8691C41.2125 42.2467 41.2004 42.6224 41.0738 42.986C40.8466 43.6392 40.3193 43.9242 39.6851 44.0607C38.9821 44.2118 38.2712 44.1628 37.5618 44.1152C37.4017 44.1045 37.242 44.0829 37.083 44.06C36.9343 44.0385 36.7868 44.0087 36.6333 43.9816Z" fill="white"/>
<path fill-rule="evenodd" clip-rule="evenodd" d="M20.2268 37.5565V38.8839C20.1339 38.8839 20.045 38.8879 19.9566 38.8831C19.3656 38.8515 18.7749 38.8129 18.1835 38.7883C18.0246 38.7816 17.8616 38.8034 17.7046 38.8334C17.3825 38.895 17.2569 39.205 17.4576 39.4628C17.5422 39.5713 17.666 39.6614 17.7899 39.7263C18.0659 39.8707 18.357 39.9868 18.6353 40.1275C19.0189 40.3215 19.4096 40.5066 19.7735 40.7331C20.3574 41.0964 20.5829 41.6565 20.5636 42.3224C20.559 42.4806 20.5412 42.641 20.5072 42.7955C20.3694 43.4228 19.9571 43.8047 19.3543 43.9813C19.0647 44.066 18.7595 44.1186 18.4581 44.1393C17.7471 44.1881 17.0369 44.1499 16.3317 44.0415C16.2319 44.0263 16.1333 44.0043 16.0187 43.9825V42.6332C16.1466 42.6476 16.2544 42.6564 16.361 42.6723C17.0069 42.7682 17.6552 42.8269 18.3088 42.7882C18.4431 42.7803 18.5773 42.7568 18.7095 42.7298C18.8954 42.6918 19.0456 42.5948 19.0898 42.4031C19.138 42.195 19.0991 41.9939 18.9175 41.8591C18.7832 41.7595 18.6326 41.678 18.4811 41.6052C18.002 41.3749 17.5174 41.1555 17.0385 40.9247C16.9024 40.8591 16.7741 40.7747 16.649 40.6892C16.1636 40.3567 15.8939 39.9002 15.8954 39.3117C15.896 39.0715 15.928 38.8261 15.984 38.5922C16.0984 38.1147 16.4216 37.8103 16.8751 37.6349C17.2829 37.4771 17.7133 37.4135 18.1447 37.419C18.7784 37.4271 19.4118 37.4749 20.0451 37.5089C20.1018 37.5119 20.1572 37.5376 20.2268 37.5565Z" fill="white"/>
<path fill-rule="evenodd" clip-rule="evenodd" d="M20.9232 47.6833V46.3653C21.112 46.3086 25.7067 46.2997 25.9742 46.3579V47.6787C25.8792 47.6854 25.79 47.6966 25.7008 47.697C25.2945 47.699 24.8884 47.6967 24.4822 47.6985C24.2075 47.6995 24.1992 47.7073 24.1991 47.9829C24.1983 49.5079 24.1987 51.0329 24.1987 52.5579C24.1987 52.6571 24.1987 52.7563 24.1987 52.8826C23.6949 52.9203 23.2121 52.9 22.6978 52.8969V52.5726C22.6978 51.0896 22.6978 49.6065 22.6978 48.1234C22.6978 48.0732 22.6983 48.0229 22.6976 47.9727C22.6943 47.7106 22.6862 47.6999 22.4293 47.6986C22.0231 47.6964 21.6168 47.6987 21.2106 47.6973C21.12 47.697 21.0293 47.6887 20.9232 47.6833Z" fill="white"/>
<path fill-rule="evenodd" clip-rule="evenodd" d="M13.6609 38.8861V41.4752V44.0073C13.4678 44.0804 12.462 44.0923 12.1685 44.0243V38.9072C12.0552 38.8984 11.9666 38.886 11.8779 38.8856C11.463 38.8835 11.0481 38.8861 10.6333 38.8839C10.3837 38.8826 10.3739 38.8732 10.3722 38.6306C10.3697 38.2713 10.3715 37.9118 10.3715 37.5253C10.9506 37.4798 11.5061 37.51 12.0603 37.5044C12.6276 37.4989 13.195 37.5033 13.7623 37.5033H15.4473V38.8861H13.6609Z" fill="white"/>
<path fill-rule="evenodd" clip-rule="evenodd" d="M48.5362 37.5208H49.9549C50.0116 37.736 50.0163 43.807 49.9608 44.0501H48.5356C48.478 43.8244 48.4776 37.7583 48.5362 37.5208Z" fill="white"/>
<path fill-rule="evenodd" clip-rule="evenodd" d="M35.5278 37.5323V44.0616C35.0358 44.0697 34.5596 44.0703 34.0625 44.0606C34.0565 43.942 34.0479 43.8525 34.0478 43.763C34.0471 41.7847 34.0472 39.8065 34.0473 37.8282C34.0473 37.778 34.0498 37.7276 34.048 37.6774C34.0435 37.5476 34.1095 37.5012 34.2356 37.5024C34.6251 37.5064 35.0144 37.5041 35.4039 37.506C35.4361 37.5061 35.4682 37.5192 35.5278 37.5323Z" fill="white"/>
<path fill-rule="evenodd" clip-rule="evenodd" d="M8.28712 37.5183H9.67976C9.73798 37.7034 9.75746 43.6606 9.70008 44.048C9.23703 44.0862 8.76848 44.0643 8.30564 44.0595C8.24297 43.8724 8.2254 37.8611 8.28712 37.5183Z" fill="white"/>
</svg>
